<?xml version="1.0" standalone="no"?>
<!DOCTYPE svg PUBLIC "-//W3C//DTD SVG 20010904//EN"
 "http://www.w3.org/TR/2001/REC-SVG-20010904/DTD/svg10.dtd">
<svg version="1.0" xmlns="http://www.w3.org/2000/svg"
 width="500.000000pt" height="500.000000pt" viewBox="0 0 500.000000 500.000000"
 preserveAspectRatio="xMidYMid meet">
<metadata>
Created by potrace 1.16, written by Peter Selinger 2001-2019
</metadata>
<g transform="translate(0.000000,500.000000) scale(0.100000,-0.100000)"
fill="#000000" stroke="none">
<path d="M2550 4690 c0 -5 -9 -10 -19 -10 -11 0 -27 -3 -36 -6 -13 -5 -14 -8
-3 -15 10 -7 10 -9 -2 -9 -9 0 -21 5 -28 12 -9 9 -12 -4 -12 -61 0 -77 -11
-101 -49 -101 -13 0 -21 -7 -21 -17 0 -15 -2 -16 -10 -3 -6 10 -10 11 -10 3 0
-7 -7 -13 -15 -13 -8 0 -15 -4 -15 -8 0 -5 21 -9 48 -11 26 -1 49 -6 50 -12 2
-5 8 -7 13 -3 5 3 9 -6 9 -20 0 -14 -6 -27 -12 -27 -7 -1 14 -5 46 -10 85 -12
95 -29 19 -29 -34 0 -64 -4 -67 -9 -3 -4 -40 -11 -83 -14 -43 -3 -79 -11 -81
-16 -2 -6 -23 -11 -47 -11 -24 0 -45 -4 -47 -9 -1 -6 -19 -13 -38 -16 -19 -3
-36 -10 -38 -16 -2 -5 -10 -9 -17 -9 -19 0 -76 -32 -96 -52 -9 -10 -21 -18
-28 -18 -6 0 -11 -7 -11 -15 0 -9 -9 -15 -21 -15 -12 0 -32 -11 -45 -25 -13
-14 -30 -25 -39 -25 -8 0 -15 -4 -15 -10 0 -5 -7 -10 -15 -10 -8 0 -15 -7 -15
-15 0 -8 -6 -15 -13 -15 -7 0 -19 -9 -27 -19 -7 -11 -17 -18 -22 -15 -4 3 -8
0 -8 -5 0 -6 -7 -11 -15 -11 -8 0 -15 -7 -15 -15 0 -13 -19 -20 -43 -16 -5 1
-6 -3 -2 -9 3 -5 -1 -10 -9 -10 -8 0 -18 5 -21 10 -12 20 -45 10 -51 -15 -3
-14 -10 -25 -15 -25 -5 0 -9 -67 -9 -150 0 -127 -2 -150 -15 -150 -8 0 -15 -4
-15 -10 0 -5 -14 -10 -31 -10 -17 0 -37 -6 -45 -14 -16 -16 -19 -86 -4 -86 6
0 10 -16 10 -36 0 -35 18 -64 39 -64 6 0 11 -20 11 -46 0 -50 14 -70 51 -76
22 -3 24 -7 21 -48 -2 -25 -7 -46 -12 -48 -13 -5 -13 -132 0 -132 6 0 10 -11
10 -25 0 -14 -4 -25 -10 -25 -5 0 -10 -7 -10 -15 0 -20 -17 -19 -29 3 -8 13
-12 14 -19 4 -7 -10 -55 -14 -202 -15 -144 -2 -194 -5 -198 -14 -2 -7 -10 -13
-18 -13 -10 0 -12 -8 -7 -30 4 -24 1 -36 -15 -50 -12 -11 -26 -20 -32 -20 -6
0 -8 -5 -5 -10 3 -6 -1 -13 -9 -16 -9 -3 -16 -14 -16 -24 0 -16 -18 -30 -41
-30 -5 0 -9 11 -9 25 0 22 -4 25 -34 25 -37 0 -46 -12 -46 -61 0 -16 -4 -29
-10 -29 -5 0 -10 5 -10 10 0 6 -5 10 -11 10 -6 0 -17 7 -26 15 -15 16 -54 11
-61 -6 -2 -5 -15 -9 -28 -9 -15 0 -24 -6 -24 -15 0 -8 -5 -15 -10 -15 -14 0
-90 -75 -90 -88 0 -12 144 -3 148 9 2 5 15 9 28 9 13 0 24 5 24 10 0 6 11 10
25 10 14 0 25 -4 25 -10 0 -5 -5 -10 -11 -10 -5 0 -7 -4 -4 -10 3 -5 -3 -10
-14 -10 -11 0 -26 -7 -35 -15 -8 -8 -19 -15 -25 -15 -6 0 -11 -4 -11 -9 0 -5
-10 -13 -22 -17 -36 -11 -46 -25 -34 -51 6 -12 15 -23 19 -23 5 0 15 -7 23
-15 9 -8 33 -15 55 -15 21 0 39 -4 39 -10 0 -6 27 -10 60 -10 33 0 60 -4 60
-9 0 -5 11 -12 25 -15 14 -4 25 -11 25 -16 0 -6 8 -10 17 -10 10 0 27 -10 38
-23 11 -12 37 -31 58 -42 20 -11 37 -23 37 -27 0 -13 -90 -9 -105 5 -37 32
-46 37 -70 37 -14 0 -25 4 -25 10 0 5 -16 12 -35 16 -19 3 -35 10 -35 15 0 5
-18 9 -40 9 -22 0 -40 4 -40 9 0 11 -38 21 -54 15 -16 -6 -46 -74 -46 -102 0
-22 2 -22 165 -22 127 0 165 -3 165 -13 0 -7 9 -19 20 -27 11 -8 20 -20 20
-27 0 -7 7 -13 16 -13 8 0 12 -4 9 -10 -4 -6 10 -10 34 -10 23 0 41 -4 41 -9
0 -5 11 -12 25 -15 14 -4 25 -11 25 -16 0 -6 7 -10 15 -10 8 0 15 -5 15 -11 0
-7 8 -18 18 -25 15 -12 12 -13 -25 -14 -43 0 -57 -13 -28 -24 29 -11 15 -26
-25 -26 -22 0 -40 -4 -40 -9 0 -4 -21 -11 -47 -14 -26 -3 -49 -10 -51 -16 -2
-6 -8 -11 -14 -11 -5 0 -16 -6 -23 -12 -33 -30 -45 -38 -55 -38 -5 0 -10 -5
-10 -11 0 -14 -25 -39 -39 -39 -6 0 -11 -11 -11 -25 0 -16 -6 -25 -15 -25 -8
0 -15 -7 -15 -15 0 -8 -4 -15 -10 -15 -5 0 -10 -14 -10 -31 0 -20 -4 -28 -12
-23 -7 4 -8 3 -4 -4 4 -7 27 -12 52 -12 24 0 44 -4 44 -9 0 -5 12 -11 27 -13
19 -2 28 -8 27 -20 -1 -10 -2 -27 -3 -37 0 -11 -8 -26 -16 -35 -8 -8 -15 -22
-15 -30 0 -25 -37 -56 -66 -56 -17 0 -39 14 -65 40 -22 22 -44 40 -50 40 -6 0
-8 4 -5 8 3 5 -1 9 -8 9 -8 0 -12 -6 -9 -14 4 -9 -3 -12 -21 -11 -14 1 -26 6
-26 11 0 4 -11 20 -25 35 -14 15 -25 32 -25 38 0 7 -7 15 -16 18 -8 3 -12 10
-9 16 3 5 1 10 -5 10 -6 0 -25 14 -42 31 -18 17 -37 28 -45 25 -8 -3 -21 -6
-29 -6 -9 0 -12 -5 -9 -10 3 -5 0 -10 -8 -10 -9 0 -35 -19 -60 -43 -35 -34
-45 -52 -50 -87 -3 -25 -11 -46 -16 -48 -7 -2 -11 -36 -11 -83 0 -72 2 -82 25
-103 14 -13 25 -33 25 -45 0 -11 5 -21 11 -21 14 0 39 -25 39 -39 0 -6 5 -11
11 -11 6 0 17 -6 24 -12 36 -32 45 -38 64 -38 23 0 31 -19 31 -76 0 -24 5 -44
10 -44 6 0 10 -40 10 -100 0 -57 4 -100 10 -100 5 0 12 -16 16 -35 3 -19 10
-35 15 -35 5 0 9 -5 9 -10 0 -6 11 -21 25 -34 14 -13 25 -26 25 -30 0 -11 27
-36 39 -36 6 0 11 -5 11 -11 0 -12 25 -39 35 -39 4 0 29 -22 56 -50 27 -27 54
-50 59 -50 6 0 21 -11 34 -25 13 -14 26 -25 30 -25 4 0 14 -6 21 -12 33 -30
45 -38 55 -38 5 0 10 -4 10 -10 0 -5 11 -12 25 -16 14 -3 25 -10 25 -15 0 -5
5 -9 11 -9 6 0 17 -6 24 -12 33 -30 45 -38 55 -38 5 0 10 -4 10 -10 0 -5 11
-12 25 -16 14 -3 25 -10 25 -15 0 -5 7 -9 15 -9 8 0 15 -4 15 -10 0 -5 11 -12
25 -16 14 -3 25 -10 25 -15 0 -5 9 -9 20 -9 11 0 20 -4 20 -9 0 -5 11 -12 25
-15 14 -4 25 -11 25 -16 0 -6 11 -10 25 -10 14 0 25 -4 25 -9 0 -5 14 -12 30
-16 17 -4 30 -11 30 -16 0 -5 16 -9 35 -9 19 0 35 -4 35 -9 0 -5 11 -12 25
-15 14 -4 25 -11 25 -16 0 -6 18 -10 40 -10 22 0 40 -4 40 -9 0 -4 21 -11 47
-14 26 -3 49 -10 51 -16 2 -6 26 -11 53 -11 27 0 49 -4 49 -9 0 -4 27 -11 60
-15 33 -4 60 -11 60 -16 0 -6 36 -10 79 -10 51 0 81 -4 83 -11 6 -17 580 -18
586 -1 2 8 28 12 78 12 41 0 74 4 74 10 0 5 27 12 60 16 33 4 60 11 60 15 0 5
25 9 55 9 30 0 55 4 55 9 0 6 20 13 45 17 25 3 45 10 45 15 0 5 18 9 40 9 22
0 40 4 40 10 0 5 16 12 35 16 19 3 35 10 35 15 0 5 11 9 25 9 14 0 25 4 25 9
0 5 14 12 30 16 17 4 30 11 30 16 0 5 11 9 25 9 14 0 25 4 25 10 0 5 11 12 25
16 14 3 25 10 25 15 0 5 9 9 20 9 11 0 20 5 20 10 0 6 6 10 14 10 8 0 16 7 20
15 3 8 15 15 26 15 11 0 20 4 20 10 0 5 11 12 25 16 14 3 25 10 25 15 0 5 7 9
16 9 8 0 13 4 10 8 -7 12 31 42 54 42 11 0 20 7 20 15 0 8 7 15 15 15 8 0 15
5 15 10 0 6 9 10 21 10 11 0 27 6 34 12 31 28 44 38 50 38 4 0 36 29 71 65 36
36 72 65 80 65 8 0 12 5 9 10 -3 6 -1 10 5 10 16 0 91 81 84 91 -3 5 0 9 5 9
6 0 11 7 11 15 0 8 4 15 9 15 5 0 12 16 15 35 4 19 11 35 16 35 6 0 10 11 10
25 0 14 5 25 11 25 6 0 17 6 24 12 31 28 44 38 50 38 4 0 24 18 46 40 22 22
46 40 54 40 9 0 15 10 15 26 0 14 4 23 9 20 5 -4 12 7 16 24 4 16 11 30 16 30
5 0 9 9 9 20 0 11 4 20 9 20 5 0 12 11 15 25 4 14 11 25 16 25 6 0 10 14 10
30 0 17 4 30 9 30 6 0 13 20 17 45 3 25 10 45 15 45 5 0 9 47 9 104 0 59 4
106 10 108 5 2 12 51 15 110 4 86 2 110 -10 122 -8 8 -15 17 -15 21 0 4 -13
19 -28 35 -22 21 -38 28 -70 28 -24 1 -49 7 -58 16 -8 9 -20 16 -25 16 -6 0
-25 16 -43 35 -19 19 -38 35 -44 35 -6 0 -13 6 -15 13 -4 9 -8 9 -15 -2 -13
-19 -52 -4 -52 20 0 14 -7 19 -25 19 -16 0 -25 6 -25 15 0 8 -7 15 -15 15 -8
0 -15 5 -15 10 0 6 -3 9 -7 9 -30 -5 -63 3 -63 15 0 9 -9 13 -26 11 -14 -1
-31 4 -39 11 -7 8 -18 14 -24 14 -6 0 -11 8 -11 19 0 14 6 17 25 13 15 -2 25
0 25 7 0 7 26 11 75 11 43 0 75 4 75 10 0 6 -4 10 -10 10 -5 0 -10 7 -10 15 0
8 -7 15 -15 15 -8 0 -15 3 -15 8 0 8 -57 42 -71 42 -5 0 -7 -11 -3 -25 6 -24
4 -25 -35 -25 -30 0 -41 4 -41 15 0 9 9 15 25 15 14 0 25 5 25 10 0 11 -16 13
-67 10 -29 -1 -33 1 -33 24 0 21 -5 26 -25 26 -15 0 -25 6 -25 14 0 8 -6 16
-12 18 -20 7 14 36 48 42 16 3 30 10 32 16 2 5 10 10 18 10 8 0 14 7 14 16 0
8 -4 13 -9 10 -5 -3 -12 5 -15 19 -4 14 -11 25 -16 25 -6 0 -10 7 -10 15 0 16
-12 18 -68 15 -22 -1 -38 4 -47 17 -19 24 -18 33 0 33 8 0 15 5 15 10 0 6 11
10 25 10 21 0 25 5 25 30 0 17 -5 30 -12 30 -9 0 -8 4 2 10 11 7 11 10 2 10
-7 0 -24 11 -38 25 -14 14 -31 25 -39 25 -8 0 -15 4 -15 10 0 5 -11 12 -25 16
-14 3 -25 10 -25 15 0 5 -25 9 -55 9 -30 0 -55 5 -55 10 0 6 -13 10 -30 10
-16 0 -30 -4 -30 -10 0 -6 -34 -10 -81 -10 -51 0 -78 -4 -74 -10 4 -6 -7 -10
-24 -10 -17 0 -31 5 -31 11 0 5 -4 8 -9 4 -5 -3 -16 2 -24 10 -12 11 -39 15
-111 15 -52 0 -98 -4 -101 -10 -11 -18 -25 -10 -25 15 0 23 -3 25 -50 25 -27
0 -50 -4 -50 -10 0 -5 -11 -10 -25 -10 -14 0 -25 5 -25 10 0 6 -11 10 -25 10
-25 0 -25 1 -25 85 0 50 4 85 10 85 6 0 10 7 10 15 0 8 7 15 15 15 9 0 15 9
15 25 0 14 4 25 9 25 5 0 12 11 15 25 4 14 11 25 16 25 6 0 10 11 10 25 0 16
6 25 15 25 8 0 15 7 15 15 0 8 5 15 10 15 6 0 10 18 10 40 0 22 5 40 10 40 6
0 10 9 10 20 0 11 -4 20 -10 20 -5 0 -10 11 -10 25 0 14 -5 25 -11 25 -29 0
-52 53 -26 63 10 4 10 6 0 6 -10 1 -13 26 -13 91 0 89 0 90 25 90 16 0 25 6
25 15 0 8 5 15 10 15 6 0 10 23 10 50 0 28 -4 50 -10 50 -5 0 -10 15 -10 34 0
19 -6 36 -12 38 -8 3 -14 33 -16 86 -2 45 -8 82 -13 82 -5 0 -9 17 -9 39 0 21
-7 52 -15 67 -8 16 -15 39 -15 52 0 12 -4 22 -10 22 -5 0 -10 16 -10 35 0 19
-4 35 -10 35 -5 0 -10 6 -10 14 0 8 -7 16 -15 20 -8 3 -15 15 -15 26 0 11 -7
20 -15 20 -8 0 -15 5 -15 11 0 16 -26 39 -45 39 -9 0 -14 3 -12 8 5 7 -17 32
-28 32 -23 1 -65 31 -65 47 0 5 -9 15 -20 23 -11 8 -20 20 -20 27 0 7 -7 13
-15 13 -9 0 -15 9 -15 25 0 20 -5 25 -25 25 -16 0 -25 -6 -25 -15 0 -18 -5
-18 -31 -5 -10 6 -19 18 -19 26 0 8 -4 13 -8 10 -5 -3 -18 4 -30 14 -22 21
-62 27 -62 10z m-775 -760 c4 -11 11 -18 16 -15 5 4 9 -3 9 -14 0 -12 5 -21
10 -21 14 0 12 -43 -2 -59 -10 -11 -10 -14 0 -18 6 -3 12 -14 12 -24 0 -11 -4
-17 -10 -14 -6 4 -10 -5 -10 -19 0 -14 -4 -26 -9 -26 -5 0 -12 -22 -16 -50 -4
-27 -11 -50 -16 -50 -14 0 -10 -40 5 -56 17 -16 136 -20 136 -4 0 6 5 10 10
10 6 0 10 -9 10 -20 0 -13 -7 -20 -19 -20 -12 0 -21 -9 -25 -25 -4 -14 -11
-25 -16 -25 -11 0 -13 -40 -4 -64 3 -9 13 -16 21 -16 8 0 21 -7 29 -15 9 -8
24 -15 35 -15 11 0 17 -4 14 -10 -6 -10 21 -14 81 -10 25 1 33 -3 38 -22 9
-36 7 -48 -9 -48 -8 0 -15 -7 -15 -15 0 -11 -12 -15 -50 -15 -27 0 -50 -4 -50
-10 0 -15 -47 -12 -53 3 -4 9 -7 9 -14 -1 -5 -7 -32 -15 -59 -18 -27 -2 -50
-9 -52 -14 -2 -6 -19 -10 -38 -10 -24 0 -34 5 -34 16 0 8 -4 13 -9 10 -5 -3
-12 5 -15 19 -4 14 -11 25 -16 25 -6 0 -10 40 -10 96 0 61 -4 93 -10 89 -5 -3
-10 1 -10 10 0 9 5 13 11 9 8 -5 8 -1 0 14 -14 26 -15 192 -1 192 6 0 10 42
10 106 0 101 1 106 28 134 34 36 87 41 97 10z m574 -564 c2 -59 -18 -96 -51
-96 -10 0 -18 -4 -18 -10 0 -5 -21 -10 -46 -10 -32 0 -43 -3 -38 -12 4 -7 3
-8 -4 -4 -15 9 -16 46 -2 46 6 0 10 12 11 28 0 24 1 25 9 7 8 -18 9 -17 9 8 1
15 7 27 14 27 8 0 20 11 27 25 9 18 22 25 42 25 15 0 28 5 28 10 0 6 4 10 8
10 5 0 10 -24 11 -54z m-241 -1106 c2 -6 35 -10 73 -10 38 0 69 -4 69 -10 0
-5 16 -12 35 -16 19 -3 35 -10 35 -15 0 -5 22 -9 49 -9 35 0 51 -4 55 -16 8
-21 -4 -65 -15 -58 -5 3 -9 -6 -9 -20 0 -14 -4 -26 -9 -26 -5 0 -11 -18 -15
-40 -3 -22 -11 -40 -16 -40 -6 0 -10 -16 -10 -36 0 -19 -6 -42 -14 -50 -16
-16 -66 -19 -66 -4 0 5 -18 13 -40 16 -22 4 -37 10 -34 15 4 7 -140 13 -182 8
-3 0 -16 11 -29 25 -30 33 -63 35 -61 4 0 -11 -5 -23 -11 -25 -7 -3 -13 1 -13
7 0 21 -28 39 -64 42 -20 1 -36 6 -36 10 0 4 -6 8 -12 8 -7 0 -35 11 -63 25
-29 15 -51 21 -53 15 -6 -18 -22 -11 -22 10 0 12 20 41 45 67 25 25 42 49 39
54 -3 5 2 9 11 9 9 0 26 11 39 25 13 14 33 25 45 25 11 0 21 4 21 9 0 6 17 12
38 14 57 7 217 -3 220 -13z m2072 -325 c0 -8 5 -15 10 -15 6 0 10 -11 10 -25
0 -14 5 -25 10 -25 6 0 10 -16 10 -35 l0 -35 -50 0 c-27 0 -50 -4 -50 -10 0
-5 -7 -10 -15 -10 -8 0 -15 5 -15 10 0 6 -16 10 -35 10 -38 0 -46 17 -20 44
21 20 19 26 -10 26 -15 0 -25 6 -25 14 0 8 -6 17 -12 20 -10 5 -10 7 0 12 6 3
12 12 12 20 0 11 19 14 90 14 73 0 90 -3 90 -15z"/>
<path d="M800 2190 c0 -5 -16 -12 -35 -16 -19 -3 -35 -10 -35 -15 0 -5 -7 -9
-15 -9 -10 0 -15 -10 -15 -31 0 -17 -4 -28 -10 -24 -5 3 -10 1 -10 -4 0 -6 5
-11 10 -11 6 0 10 -7 10 -15 0 -8 9 -15 21 -15 11 0 17 -4 14 -10 -3 -5 -1
-10 4 -10 6 0 11 5 11 10 0 6 11 10 25 10 20 0 25 5 25 25 0 20 5 25 25 25 16
0 25 6 25 15 0 8 5 15 11 15 5 0 7 5 4 10 -3 6 3 10 14 10 12 0 21 7 21 15 0
8 5 15 10 15 6 0 10 5 10 10 0 6 -27 10 -60 10 -33 0 -60 -4 -60 -10z"/>
</g>
</svg>
